<svg viewBox="0 0 640 384" fill="none" xmlns="http://www.w3.org/2000/svg">
<path d="M592.804 84.5932L552.777 44.9771L470.083 96.7202L437.956 64.9323L336.902 180.941L202.461 202.537L117.349 123.018L107.075 265.518L508.216 206.354L593.524 95.1485C595.977 91.9509 595.669 87.4281 592.804 84.5932Z" fill="black"/>
<path fill-rule="evenodd" clip-rule="evenodd" d="M364.136 248.197V75.3966L431.433 63.4327C436.653 62.5047 440.885 66.0504 440.885 71.3524V111.503L477.87 55.1772L545.802 43.1003C553.728 41.6913 558.134 50.2193 553.183 57.3852L505.876 125.857L562.796 212.879L474.326 228.607L455.88 198.22L429.362 236.601L364.136 248.197Z" fill="black"/>
<path fill-rule="evenodd" clip-rule="evenodd" d="M376.65 164.372L375.908 170.97C374.124 186.846 368.771 201.794 359.693 215.458C350.818 228.985 339.149 240.184 325.089 249.08C310.87 258.076 294.977 263.948 277.705 267.018C259.089 270.327 242.132 269.881 227.232 265.114C212.452 260.386 200.573 252.001 192.02 239.87L191.97 239.799L191.92 239.727C190.759 238.025 189.682 236.271 188.687 234.467L183.286 221.788C180.674 213.5 179.406 204.415 179.406 194.637C179.406 177.214 183.433 160.592 191.958 145.222L191.97 145.201L191.981 145.181C200.525 129.871 212.411 117.167 227.232 107.156C242.132 97.0916 259.089 90.6155 277.705 87.306C294.977 84.2355 310.87 84.4557 325.089 88.3964C339.151 92.2938 350.07 100.092 359.695 109.717C362.282 112.303 365.108 114.947 369.082 118.844C378.057 127.644 376.65 154.772 376.65 154.772V164.372Z" fill="black"/>
<path fill-rule="evenodd" clip-rule="evenodd" d="M109.859 120.601C115.079 119.673 119.311 123.219 119.311 128.521V218.761L194.573 205.381C199.123 234.299 202.865 228.307 202.865 228.307L529.82 162.354L586.092 243.8C588.061 246.65 585.791 251.204 582.076 251.858L82.0988 339.86C78.8756 340.427 75.8162 339.533 73.7254 337.413L44.4426 307.722C42.985 306.244 42.1844 304.179 42.1844 301.897V142.233C42.1844 136.931 46.4161 131.88 51.6362 130.952L109.859 120.601Z" fill="black"/>
<path d="M105.134 134.844V256.956L83.2056 238.582L188.688 219.829V263.989L56.3625 287.514V143.514L105.134 134.844ZM361.827 170.809C360.315 184.262 355.841 196.577 348.405 207.755C341.096 218.911 331.392 228.316 319.294 235.971C307.196 243.625 293.333 248.842 277.706 251.62C260.819 254.622 246.074 254.108 233.471 250.076C220.869 246.044 211.039 239.024 203.982 229.015C197.051 218.855 193.585 206.223 193.585 191.119C193.585 176.015 197.051 162.215 203.982 149.719C211.039 137.072 220.869 126.492 233.471 117.98C246.074 109.468 260.819 103.71 277.706 100.708C293.333 97.9299 307.196 98.2174 319.294 101.571C331.392 104.924 341.096 110.879 348.405 119.435C355.841 127.969 360.315 138.694 361.827 151.609L312.867 160.313C311.732 155.523 309.653 151.669 306.628 148.75C303.604 145.704 299.634 143.722 294.719 142.803C289.93 141.735 284.259 141.783 277.706 142.948C270.397 144.247 264.095 146.712 258.802 150.341C253.635 153.819 249.666 158.301 246.893 163.786C244.121 169.271 242.734 175.469 242.734 182.381C242.734 189.293 244.121 194.999 246.893 199.498C249.666 203.869 253.635 206.939 258.802 208.709C264.095 210.456 270.397 210.679 277.706 209.38C284.259 208.215 289.93 206.375 294.719 203.859C299.634 201.194 303.604 197.864 306.628 193.87C309.653 189.749 311.732 184.963 312.867 179.513L361.827 170.809ZM378.314 230.278V86.2781L426.708 77.6748V183.083L414.42 174.707L484.931 67.3241L535.97 58.2503L422.549 222.414L378.314 230.278ZM446.367 151.94L482.284 116.947L537.861 201.914L482.662 211.727L446.367 151.94Z" fill="white"/>
</svg>
