<svg width="188" height="28" viewBox="0 0 188 28" fill="none" xmlns="http://www.w3.org/2000/svg">
<g clip-path="url(#clip0_5581_79625)">
<path d="M7.31873 20.7948H14.6156L15.6888 27.2343H0.020874L4.31384 0.191284H10.7523L7.31873 20.7948ZM27.7074 27.2343H21.4838L16.9769 0.191284H23.4154L27.7074 27.2343ZM38.975 21.1493L42.3021 0.191284H48.7406L44.2338 27.2343H33.7172L29.2103 0.191284H35.6488L38.975 21.1493Z" fill="black"/>
<path d="M68.6364 18.5H65.4325V9.04545H68.701C69.6397 9.04545 70.446 9.23473 71.12 9.61328C71.7971 9.98875 72.3172 10.5289 72.6804 11.2337C73.0436 11.9384 73.2251 12.7817 73.2251 13.7635C73.2251 14.7483 73.042 15.5947 72.6758 16.3026C72.3126 17.0104 71.7879 17.5536 71.1016 17.9322C70.4183 18.3107 69.5966 18.5 68.6364 18.5ZM67.1452 17.0181H68.5533C69.2119 17.0181 69.7612 16.8981 70.2013 16.658C70.6415 16.4149 70.9723 16.0533 71.1939 15.5732C71.4155 15.09 71.5263 14.4867 71.5263 13.7635C71.5263 13.0402 71.4155 12.4401 71.1939 11.9631C70.9723 11.483 70.6445 11.1244 70.2106 10.8874C69.7797 10.6474 69.2442 10.5273 68.604 10.5273H67.1452V17.0181ZM83.9506 13.7727C83.9506 14.7914 83.7598 15.6639 83.3782 16.3903C82.9996 17.1135 82.4826 17.6675 81.827 18.0522C81.1746 18.4369 80.4344 18.6293 79.6065 18.6293C78.7786 18.6293 78.0369 18.4369 77.3814 18.0522C76.7289 17.6644 76.2118 17.1089 75.8302 16.3857C75.4517 15.6593 75.2624 14.7884 75.2624 13.7727C75.2624 12.754 75.4517 11.883 75.8302 11.1598C76.2118 10.4335 76.7289 9.87796 77.3814 9.49325C78.0369 9.10855 78.7786 8.91619 79.6065 8.91619C80.4344 8.91619 81.1746 9.10855 81.827 9.49325C82.4826 9.87796 82.9996 10.4335 83.3782 11.1598C83.7598 11.883 83.9506 12.754 83.9506 13.7727ZM82.2287 13.7727C82.2287 13.0556 82.1163 12.4509 81.8917 11.9585C81.6701 11.4629 81.3623 11.089 80.9684 10.8366C80.5744 10.5812 80.1205 10.4535 79.6065 10.4535C79.0925 10.4535 78.6386 10.5812 78.2446 10.8366C77.8507 11.089 77.5414 11.4629 77.3167 11.9585C77.0951 12.4509 76.9843 13.0556 76.9843 13.7727C76.9843 14.4898 77.0951 15.0961 77.3167 15.5916C77.5414 16.084 77.8507 16.458 78.2446 16.7134C78.6386 16.9658 79.0925 17.092 79.6065 17.092C80.1205 17.092 80.5744 16.9658 80.9684 16.7134C81.3623 16.458 81.6701 16.084 81.8917 15.5916C82.1163 15.0961 82.2287 14.4898 82.2287 13.7727ZM94.3125 12.2354H92.586C92.5367 11.9523 92.4459 11.7015 92.3136 11.483C92.1812 11.2614 92.0166 11.0736 91.8196 10.9197C91.6226 10.7659 91.398 10.6504 91.1456 10.5735C90.8963 10.4935 90.627 10.4535 90.3377 10.4535C89.8238 10.4535 89.3683 10.5827 88.9713 10.8413C88.5742 11.0967 88.2634 11.4722 88.0387 11.9677C87.8141 12.4601 87.7017 13.0618 87.7017 13.7727C87.7017 14.496 87.8141 15.1054 88.0387 15.6009C88.2665 16.0933 88.5773 16.4657 88.9713 16.718C89.3683 16.9673 89.8222 17.092 90.3331 17.092C90.6163 17.092 90.8809 17.055 91.1271 16.9812C91.3764 16.9042 91.5996 16.7919 91.7965 16.6442C91.9966 16.4964 92.1643 16.3149 92.2997 16.0994C92.4382 15.884 92.5336 15.6378 92.586 15.3608L94.3125 15.37C94.2479 15.8194 94.1079 16.241 93.8924 16.6349C93.6801 17.0289 93.4015 17.3767 93.0568 17.6783C92.7121 17.9768 92.309 18.2107 91.8473 18.38C91.3857 18.5462 90.8732 18.6293 90.31 18.6293C89.4791 18.6293 88.7374 18.4369 88.0849 18.0522C87.4324 17.6675 86.9185 17.112 86.543 16.3857C86.1675 15.6593 85.9798 14.7884 85.9798 13.7727C85.9798 12.754 86.1691 11.883 86.5476 11.1598C86.9262 10.4335 87.4417 9.87796 88.0941 9.49325C88.7466 9.10855 89.4852 8.91619 90.31 8.91619C90.8363 8.91619 91.3257 8.99006 91.7781 9.13778C92.2305 9.28551 92.6337 9.50249 92.9876 9.78871C93.3415 10.0719 93.6324 10.4196 93.8601 10.832C94.0909 11.2414 94.2417 11.7092 94.3125 12.2354ZM102.491 9.04545H104.204V15.2223C104.204 15.8994 104.044 16.4949 103.723 17.0089C103.406 17.5228 102.96 17.9245 102.385 18.2138C101.809 18.5 101.137 18.6431 100.367 18.6431C99.5948 18.6431 98.9208 18.5 98.3452 18.2138C97.7697 17.9245 97.3235 17.5228 97.0065 17.0089C96.6895 16.4949 96.531 15.8994 96.531 15.2223V9.04545H98.2437V15.0792C98.2437 15.4731 98.3299 15.824 98.5022 16.1317C98.6776 16.4395 98.9238 16.6811 99.2408 16.8565C99.5578 17.0289 99.9333 17.1151 100.367 17.1151C100.801 17.1151 101.177 17.0289 101.494 16.8565C101.814 16.6811 102.06 16.4395 102.232 16.1317C102.405 15.824 102.491 15.4731 102.491 15.0792V9.04545ZM106.715 9.04545H108.811L111.618 15.8963H111.729L114.535 9.04545H116.631V18.5H114.988V12.0046H114.9L112.287 18.4723H111.059L108.446 11.9908H108.359V18.5H106.715V9.04545ZM119.146 18.5V9.04545H125.296V10.4812H120.859V13.0479H124.977V14.4837H120.859V17.0643H125.332V18.5H119.146ZM135.462 9.04545V18.5H133.939L129.484 12.06H129.406V18.5H127.693V9.04545H129.226L133.676 15.4901H133.759V9.04545H135.462ZM137.563 10.4812V9.04545H145.106V10.4812H142.184V18.5H140.485V10.4812H137.563ZM147.282 18.5H145.454L148.783 9.04545H150.897L154.23 18.5H152.402L149.877 10.9844H149.803L147.282 18.5ZM147.342 14.793H152.328V16.1687H147.342V14.793ZM154.567 10.4812V9.04545H162.111V10.4812H159.188V18.5H157.489V10.4812H154.567ZM165.927 9.04545V18.5H164.215V9.04545H165.927ZM176.88 13.7727C176.88 14.7914 176.689 15.6639 176.308 16.3903C175.929 17.1135 175.412 17.6675 174.757 18.0522C174.104 18.4369 173.364 18.6293 172.536 18.6293C171.708 18.6293 170.967 18.4369 170.311 18.0522C169.659 17.6644 169.142 17.1089 168.76 16.3857C168.381 15.6593 168.192 14.7884 168.192 13.7727C168.192 12.754 168.381 11.883 168.76 11.1598C169.142 10.4335 169.659 9.87796 170.311 9.49325C170.967 9.10855 171.708 8.91619 172.536 8.91619C173.364 8.91619 174.104 9.10855 174.757 9.49325C175.412 9.87796 175.929 10.4335 176.308 11.1598C176.689 11.883 176.88 12.754 176.88 13.7727ZM175.158 13.7727C175.158 13.0556 175.046 12.4509 174.821 11.9585C174.6 11.4629 174.292 11.089 173.898 10.8366C173.504 10.5812 173.05 10.4535 172.536 10.4535C172.022 10.4535 171.568 10.5812 171.174 10.8366C170.78 11.089 170.471 11.4629 170.246 11.9585C170.025 12.4509 169.914 13.0556 169.914 13.7727C169.914 14.4898 170.025 15.0961 170.246 15.5916C170.471 16.084 170.78 16.458 171.174 16.7134C171.568 16.9658 172.022 17.092 172.536 17.092C173.05 17.092 173.504 16.9658 173.898 16.7134C174.292 16.458 174.6 16.084 174.821 15.5916C175.046 15.0961 175.158 14.4898 175.158 13.7727ZM186.919 9.04545V18.5H185.396L180.941 12.06H180.862V18.5H179.15V9.04545H180.682L185.132 15.4901H185.216V9.04545H186.919Z" fill="black"/>
</g>
<defs>
<clipPath id="clip0_5581_79625">
<rect width="188" height="28" fill="black"/>
</clipPath>
</defs>
</svg>
